<svg width="557" height="61" viewBox="0 0 557 61" fill="none" xmlns="http://www.w3.org/2000/svg">
<path d="M30.293 41.9316C31.0742 41.2676 31.6895 40.4082 32.1387 39.3535C32.6074 38.2988 32.8418 37.1953 32.8418 36.043C32.8418 34.8711 32.6172 33.9629 32.168 33.3184C32.4805 32.7715 33.1348 32.498 34.1309 32.498C35.127 32.498 35.8887 32.8203 36.416 33.4648C36.9629 34.1094 37.2363 35.1055 37.2363 36.4531C37.2363 37.7812 36.875 39.168 36.1523 40.6133C35.4492 42.0391 34.4531 43.2891 33.1641 44.3633C30.3125 46.707 26.748 47.8789 22.4707 47.8789C17.373 47.8789 13.1836 46.2773 9.90234 43.0742C6.5625 39.793 4.55078 35.1152 3.86719 29.041C3.53516 26.2676 2.53906 24.4707 0.878906 23.6504C1.79688 23.2207 2.43164 22.7715 2.7832 22.3027C3.34961 21.502 3.71094 20.418 3.86719 19.0508C4.04297 17.6641 4.36523 16.2285 4.83398 14.7441C5.30273 13.2598 5.91797 11.8535 6.67969 10.5254C7.46094 9.17773 8.38867 7.94727 9.46289 6.83398C10.5371 5.70117 11.7676 4.72461 13.1543 3.9043C16.084 2.16602 19.502 1.29688 23.4082 1.29688C27.2168 1.29688 30.3711 2.25391 32.8711 4.16797C35.1172 5.90625 36.5723 8.26953 37.2363 11.2578C37.5488 12.7422 37.9492 13.6602 38.4375 14.0117C38.6328 14.168 38.877 14.3145 39.1699 14.4512C38.584 15.4277 37.6953 15.9648 36.5039 16.0625C35.9766 16.1406 35.4102 16.0332 34.8047 15.7402C33.7305 17.5762 32.2168 18.5527 30.2637 18.6699C29.8535 18.709 29.541 18.6309 29.3262 18.4355C29.8535 17.7324 30.0977 16.9121 30.0586 15.9746C30.0586 15.7988 30.0293 15.623 29.9707 15.4473C29.0723 15.623 28.3105 15.5449 27.6855 15.2129C26.6699 14.627 26.1426 13.9922 26.1035 13.3086C26.1035 13.1523 26.1328 12.9961 26.1914 12.8398C27.4023 13.1914 28.5547 12.918 29.6484 12.0195C30.3906 11.4141 30.7422 10.7305 30.7031 9.96875C30.6641 9.20703 30.4883 8.54297 30.1758 7.97656C29.8633 7.41016 29.4141 6.90234 28.8281 6.45312C27.5 5.39844 25.8398 4.87109 23.8477 4.87109C20.4492 4.87109 18.2422 6.39453 17.2266 9.44141C16.8945 10.457 16.7285 11.6484 16.7285 13.0156V18.9336C16.7285 21.1406 17.8027 22.7129 19.9512 23.6504C17.8027 24.6855 16.7285 26.375 16.7285 28.7188V35.9551C16.7285 39.666 18.2031 42.1172 21.1523 43.3086C22.1094 43.6797 23.1641 43.8652 24.3164 43.8652C25.4688 43.8652 26.5527 43.709 27.5684 43.3965C28.6035 43.084 29.5117 42.5957 30.293 41.9316ZM10.5176 39.2363C10.8105 39.1191 10.957 38.9141 10.957 38.6211C10.957 38.1914 10.752 37.5176 10.3418 36.5996C9.30664 34.2363 8.78906 29.9199 8.78906 23.6504C8.78906 19.0801 9.33594 15.1934 10.4297 11.9902C10.5664 11.502 10.6348 11.1309 10.6348 10.877C10.6348 10.623 10.5078 10.457 10.2539 10.3789C9.33594 11.5312 8.68164 12.6738 8.29102 13.8066C7.56836 15.877 6.99219 18.6797 6.5625 22.2148C6.50391 22.7227 5.92773 23.2012 4.83398 23.6504C5.92773 24.1387 6.50391 24.6367 6.5625 25.1445C7.26562 31.1992 8.16406 35.2422 9.25781 37.2734C9.62891 37.9961 10.0488 38.6504 10.5176 39.2363ZM47.9883 43.7188C46.7578 42.4688 45.7812 40.9844 45.0586 39.2656C44.3555 37.5469 43.9258 36.0723 43.7695 34.8418C43.6133 33.6113 43.4766 32.8203 43.3594 32.4688C43.2617 32.1172 43.0859 31.7852 42.832 31.4727C42.3242 30.8281 41.3965 30.1738 40.0488 29.5098C41.748 28.748 42.832 27.5273 43.3008 25.8477C43.4375 25.3789 43.5449 24.9102 43.623 24.4414C44.1309 20.9453 45.8203 18.0254 48.6914 15.6816C51.5625 13.3184 54.9121 12.1367 58.7402 12.1367C62.7246 12.1367 66.1523 13.3281 69.0234 15.7109C71.8164 18.0352 73.4668 20.9453 73.9746 24.4414C74.1504 25.6719 74.4141 26.5703 74.7656 27.1367C75.4297 28.1719 76.3574 28.9629 77.5488 29.5098C76.2207 30.1543 75.3613 30.7207 74.9707 31.209C74.4434 31.8926 74.1113 32.7031 73.9746 33.6406C73.3496 38.25 71.748 41.7559 69.1699 44.1582C66.5918 46.541 63.1543 47.7324 58.8574 47.7324C54.248 47.7324 50.625 46.3945 47.9883 43.7188ZM63.7793 23.5918C63.7793 18.709 62.1191 16.2676 58.7988 16.2676C55.4785 16.2676 53.8184 18.709 53.8184 23.5918V36.5703C53.8184 41.2578 55.4688 43.6016 58.7695 43.6016C62.1094 43.6016 63.7793 41.2578 63.7793 36.5703V23.5918ZM66.5918 39.2363C67.5684 38.8652 68.1055 37.5859 68.2031 35.3984C68.3203 33.2109 68.3789 31.5898 68.3789 30.5352C68.3789 29.4609 68.3691 28.5723 68.3496 27.8691C68.3496 27.1465 68.3398 26.4043 68.3203 25.6426C68.2422 22.791 68.0176 21.1309 67.6465 20.6621C67.2754 20.1934 66.9238 19.8809 66.5918 19.7246V39.2363ZM49.043 39.2363C49.3164 39.0215 49.4531 38.7773 49.4531 38.5039C49.4531 38.0742 49.3652 37.5273 49.1895 36.8633C48.3887 33.7969 47.9883 31.668 47.9883 30.4766C47.9883 29.2656 48.0273 28.3281 48.1055 27.6641C48.1836 26.9805 48.2812 26.2969 48.3984 25.6133C48.6523 24.2852 48.916 23.1133 49.1895 22.0977C49.3652 21.4336 49.4531 20.9844 49.4531 20.75C49.4531 20.2812 49.3164 19.9395 49.043 19.7246C48.2227 20.7012 47.5977 22.0098 47.168 23.6504C46.7383 25.291 46.3867 26.7363 46.1133 27.9863C46.0156 28.5137 45.4395 29.0215 44.3848 29.5098C45.4395 29.998 46.0156 30.4863 46.1133 30.9746C46.8359 34.2754 47.4316 36.375 47.9004 37.2734C48.3691 38.1719 48.75 38.8262 49.043 39.2363ZM135.176 16.7949C134.707 16.5215 134.102 16.3848 133.359 16.3848C132.637 16.3848 132.1 16.4141 131.748 16.4727C131.396 16.5312 131.064 16.6387 130.752 16.7949C130.088 17.127 129.609 17.7422 129.316 18.6406L127.207 24.793C126.992 25.4375 126.885 26.0039 126.885 26.4922C126.885 26.9609 126.963 27.3418 127.119 27.6348C127.295 27.9277 127.5 28.2109 127.734 28.4844C128.262 29.0508 128.701 29.3828 129.053 29.4805C127.529 29.8906 126.523 30.291 126.035 30.6816C125.312 31.2285 124.766 31.9805 124.395 32.9375L120.205 45.623C119.561 47.2441 118.535 48.0547 117.129 48.0547C116.719 48.0547 116.279 47.9863 115.811 47.8496L106.025 23.5625L99.1699 45.623C98.8379 46.6777 98.1543 47.4199 97.1191 47.8496C96.7871 47.9863 96.4258 48.0547 96.0352 48.0547C95.6641 48.0547 95.2441 47.9863 94.7754 47.8496L88.5645 33.1133C88.0566 31.8633 86.8848 30.877 85.0488 30.1543L83.3496 29.5098C84.7559 28.2988 85.459 27.4688 85.459 27.0195C85.459 26.5703 85.4102 26.1504 85.3125 25.7598C85.2148 25.3691 85.0586 24.8809 84.8438 24.2949C84.6484 23.709 84.3945 22.9961 84.082 22.1562L82.8809 19.1094C82.4121 17.9375 82.0312 17.2246 81.7383 16.9707C81.2305 16.502 80.5859 16.2676 79.8047 16.2676C79.0234 16.2676 78.418 16.4336 77.9883 16.7656C77.7734 16.5508 77.666 16.1309 77.666 15.5059C77.666 14.8809 77.9297 14.3145 78.457 13.8066C78.9844 13.2793 79.8145 13.0156 80.9473 13.0156C82.0996 13.0156 83.1641 13.3672 84.1406 14.0703C84.9414 13.3672 85.9277 13.0156 87.0996 13.0156C88.291 13.0156 89.3359 13.3477 90.2344 14.0117C91.0938 13.3477 92.0801 13.0156 93.1934 13.0156C94.3066 13.0156 95.1758 13.2793 95.8008 13.8066C96.4258 14.3145 96.7383 14.959 96.7383 15.7402C96.7383 16.209 96.5918 16.5898 96.2988 16.8828C95.8301 16.5312 95.3906 16.3555 94.9805 16.3555C94.5898 16.3555 94.2969 16.3848 94.1016 16.4434C93.9062 16.4824 93.7305 16.5605 93.5742 16.6777C93.1836 16.9512 93.0078 17.332 93.0469 17.8203L99.0527 33.4355L103.945 18.4355C103.281 16.9902 102.412 16.2676 101.338 16.2676C100.693 16.2676 100.146 16.4336 99.6973 16.7656C99.4824 16.5508 99.375 16.1309 99.375 15.5059C99.375 14.8809 99.6777 14.3145 100.283 13.8066C100.908 13.2793 101.758 13.0156 102.832 13.0156C103.906 13.0156 104.834 13.3477 105.615 14.0117C106.455 13.3477 107.432 13.0156 108.545 13.0156C109.658 13.0156 110.654 13.3379 111.533 13.9824C112.295 13.3379 113.096 13.0156 113.936 13.0156C114.775 13.0156 115.42 13.0742 115.869 13.1914C116.338 13.2891 116.738 13.4453 117.07 13.6602C117.812 14.0898 118.184 14.6855 118.184 15.4473C118.184 15.916 118.037 16.2969 117.744 16.5898C117.275 16.2383 116.797 16.0625 116.309 16.0625C115.82 16.0625 115.43 16.248 115.137 16.6191C114.863 16.9902 114.727 17.4102 114.727 17.8789C114.727 18.3281 114.785 18.7383 114.902 19.1094L114.844 18.9629L120.205 33.4355L125.303 18.3477C125.244 16.9414 124.385 16.2383 122.725 16.2383C121.943 16.2383 121.23 16.4238 120.586 16.7949C120.371 16.4434 120.264 15.9746 120.264 15.3887C120.264 14.7832 120.527 14.2363 121.055 13.748C121.582 13.2598 122.305 13.0156 123.223 13.0156C124.16 13.0156 124.961 13.3281 125.625 13.9531C126.328 13.3281 127.129 13.0156 128.027 13.0156C128.926 13.0156 129.717 13.2988 130.4 13.8652C131.123 13.2988 131.904 13.0156 132.744 13.0156C133.604 13.0156 134.268 13.25 134.736 13.7188C135.225 14.1875 135.469 14.7441 135.469 15.3887C135.469 16.0332 135.371 16.502 135.176 16.7949ZM93.0762 18.1719C93.1348 18.3867 93.2227 18.6309 93.3398 18.9043L93.0762 18.1719ZM108.896 19.7246C108.623 20.1152 108.486 20.584 108.486 21.1309C108.486 21.6777 108.535 22.1758 108.633 22.625C108.75 23.0742 108.896 23.5527 109.072 24.0605C109.248 24.5684 109.453 25.1055 109.688 25.6719L110.332 27.3711L115.518 39.2363C115.693 39.041 115.781 38.709 115.781 38.2402C115.781 37.7715 115.752 37.4004 115.693 37.127C115.654 36.8535 115.566 36.5117 115.43 36.1016C115.312 35.6914 115.146 35.1836 114.932 34.5781L114.141 32.3809L108.896 19.7246ZM87.5684 19.7246C87.2949 19.9004 87.1582 20.2422 87.1582 20.75C87.1582 21.2578 87.168 21.6387 87.1875 21.8926C87.207 22.127 87.2559 22.4102 87.334 22.7422C87.4902 23.4453 87.8125 24.3828 88.3008 25.5547C88.7891 26.707 89.0332 27.4102 89.0332 27.6641C89.0527 27.918 89.0332 28.1328 88.9746 28.3086C88.916 28.4648 88.8281 28.6211 88.7109 28.7773C88.4766 29.168 88.1934 29.4219 87.8613 29.5391C89.2285 29.8125 90.0781 30.2422 90.4102 30.8281L90.8203 31.6191C90.9375 31.873 91.0742 32.1953 91.2305 32.5859L92.8418 36.1895C93.252 37.0879 93.6523 37.7812 94.043 38.2695C94.4336 38.7578 94.9609 39.0801 95.625 39.2363L87.5684 19.7246ZM148.213 44.9492C146.084 46.707 143.916 47.5859 141.709 47.5859C139.736 47.5859 138.525 47.332 138.076 46.8242C138.506 46.2969 138.74 45.5059 138.779 44.4512C138.818 43.3965 138.838 42.4102 138.838 41.4922V33.3477C138.838 32.4883 138.652 31.8633 138.281 31.4727C137.754 30.8672 136.748 30.2031 135.264 29.4805C136.631 28.8555 137.5 28.3574 137.871 27.9863C138.516 27.3418 138.838 26.5605 138.838 25.6426V9.06055C138.838 6.83398 137.93 5.7207 136.113 5.7207C135.449 5.7207 134.902 5.88672 134.473 6.21875C134.199 5.84766 134.062 5.4668 134.062 5.07617C134.062 4.66602 134.16 4.27539 134.355 3.9043C134.57 3.5332 134.883 3.19141 135.293 2.87891C136.23 2.21484 137.402 1.88281 138.809 1.88281C140.215 1.88281 141.318 1.9707 142.119 2.14648C143.291 0.798828 144.492 0.125 145.723 0.125C147.734 0.125 148.74 1.17969 148.74 3.28906V15.8281C150.244 14.3242 152.256 13.2793 154.775 12.6934C155.537 12.5176 156.523 12.4297 157.734 12.4297C158.945 12.4297 160.215 12.6055 161.543 12.957C162.871 13.3086 164.023 13.9336 165 14.832C166.953 16.6289 168.154 19.832 168.604 24.4414C168.799 26.8438 169.99 28.543 172.178 29.5391C170.791 30.2227 169.912 30.7988 169.541 31.2676C169.033 31.9316 168.721 32.7227 168.604 33.6406C168.037 38.3477 166.826 41.8242 164.971 44.0703C162.939 46.5117 160 47.7324 156.152 47.7324C154.18 47.7324 152.148 47.1953 150.059 46.1211C149.375 45.7891 148.76 45.3984 148.213 44.9492ZM145.928 10.3789C145.127 10.75 144.639 11.4531 144.463 12.4883C144.248 13.7773 144.141 15.9063 144.141 18.875V23.3867V24.3242C144.16 25.3789 144.18 26.8145 144.199 28.6309C144.219 30.4277 144.238 31.8145 144.258 32.791C144.297 34.9004 144.355 36.2383 144.434 36.8047C144.512 37.3711 144.688 37.8887 144.961 38.3574C145.254 38.8066 145.576 39.0996 145.928 39.2363V10.3789ZM148.74 37.7129C148.74 39.2949 149.277 40.6523 150.352 41.7852C151.367 42.8984 152.52 43.4551 153.809 43.4551C157.07 43.4551 158.701 41.1113 158.701 36.4238V23.5918C158.701 19.9199 157.852 17.7422 156.152 17.0586C155.605 16.8242 154.99 16.707 154.307 16.707C151.807 16.707 150.117 17.9082 149.238 20.3105C148.906 21.1895 148.74 22.2832 148.74 23.5918V37.7129ZM161.514 39.2363C162.49 38.8652 163.027 37.5859 163.125 35.3984C163.242 33.2109 163.301 31.5898 163.301 30.5352C163.301 29.4609 163.291 28.5723 163.271 27.8691C163.271 27.1465 163.262 26.4043 163.242 25.6426C163.164 22.791 162.939 21.1309 162.568 20.6621C162.197 20.1934 161.846 19.8809 161.514 19.7246V39.2363ZM182.695 43.7188C181.465 42.4688 180.488 40.9844 179.766 39.2656C179.062 37.5469 178.633 36.0723 178.477 34.8418C178.32 33.6113 178.184 32.8203 178.066 32.4688C177.969 32.1172 177.793 31.7852 177.539 31.4727C177.031 30.8281 176.104 30.1738 174.756 29.5098C176.455 28.748 177.539 27.5273 178.008 25.8477C178.145 25.3789 178.252 24.9102 178.33 24.4414C178.838 20.9453 180.527 18.0254 183.398 15.6816C186.27 13.3184 189.619 12.1367 193.447 12.1367C197.432 12.1367 200.859 13.3281 203.73 15.7109C206.523 18.0352 208.174 20.9453 208.682 24.4414C208.857 25.6719 209.121 26.5703 209.473 27.1367C210.137 28.1719 211.064 28.9629 212.256 29.5098C210.928 30.1543 210.068 30.7207 209.678 31.209C209.15 31.8926 208.818 32.7031 208.682 33.6406C208.057 38.25 206.455 41.7559 203.877 44.1582C201.299 46.541 197.861 47.7324 193.564 47.7324C188.955 47.7324 185.332 46.3945 182.695 43.7188ZM198.486 23.5918C198.486 18.709 196.826 16.2676 193.506 16.2676C190.186 16.2676 188.525 18.709 188.525 23.5918V36.5703C188.525 41.2578 190.176 43.6016 193.477 43.6016C196.816 43.6016 198.486 41.2578 198.486 36.5703V23.5918ZM201.299 39.2363C202.275 38.8652 202.812 37.5859 202.91 35.3984C203.027 33.2109 203.086 31.5898 203.086 30.5352C203.086 29.4609 203.076 28.5723 203.057 27.8691C203.057 27.1465 203.047 26.4043 203.027 25.6426C202.949 22.791 202.725 21.1309 202.354 20.6621C201.982 20.1934 201.631 19.8809 201.299 19.7246V39.2363ZM183.75 39.2363C184.023 39.0215 184.16 38.7773 184.16 38.5039C184.16 38.0742 184.072 37.5273 183.896 36.8633C183.096 33.7969 182.695 31.668 182.695 30.4766C182.695 29.2656 182.734 28.3281 182.812 27.6641C182.891 26.9805 182.988 26.2969 183.105 25.6133C183.359 24.2852 183.623 23.1133 183.896 22.0977C184.072 21.4336 184.16 20.9844 184.16 20.75C184.16 20.2812 184.023 19.9395 183.75 19.7246C182.93 20.7012 182.305 22.0098 181.875 23.6504C181.445 25.291 181.094 26.7363 180.82 27.9863C180.723 28.5137 180.146 29.0215 179.092 29.5098C180.146 29.998 180.723 30.4863 180.82 30.9746C181.543 34.2754 182.139 36.375 182.607 37.2734C183.076 38.1719 183.457 38.8262 183.75 39.2363ZM250.693 16.7949C250.264 16.5215 249.58 16.3848 248.643 16.3848C246.768 16.3848 245.352 17.6543 244.395 20.1934L243.486 22.7422C242.822 24.5977 242.48 25.8672 242.461 26.5508C242.461 27.2344 242.578 27.791 242.812 28.2207C243.066 28.6309 243.623 29.0605 244.482 29.5098C242.373 30.0957 240.938 31.082 240.176 32.4688C239.941 32.8984 239.736 33.3477 239.561 33.8164L234.697 47.0293C232.803 52.4785 231.045 56.1699 229.424 58.1035C227.939 59.8809 226.084 60.7695 223.857 60.7695C222.158 60.7695 220.557 60.2227 219.053 59.1289C217.334 57.8984 216.475 56.4531 216.475 54.793C216.475 53.7578 216.748 52.9668 217.295 52.4199C217.842 51.8926 218.34 51.6289 218.789 51.6289C219.258 51.6289 219.58 51.6289 219.756 51.6289C219.932 51.6484 220.107 51.6875 220.283 51.7461C220.635 51.9023 220.967 52.2539 221.279 52.8008C220.869 53.582 221.133 54.4414 222.07 55.3789C222.949 56.2969 223.77 56.7559 224.531 56.7559C225.312 56.7559 225.957 56.6094 226.465 56.3164C226.992 56.0234 227.461 55.5742 227.871 54.9688C228.77 53.6406 229.219 51.7363 229.219 49.2559C229.219 47.9082 228.857 46.4238 228.135 44.8027C227.939 44.2559 227.705 43.6797 227.432 43.0742L223.271 33.6992C222.822 32.7031 222.139 31.8242 221.221 31.0625C220.322 30.2812 219.307 29.7637 218.174 29.5098C219.521 28.8262 220.195 27.9277 220.195 26.8145C220.195 26.0137 219.873 24.832 219.229 23.2695L217.5 19.1094C216.992 17.9766 216.572 17.2637 216.24 16.9707C215.654 16.502 214.971 16.2676 214.189 16.2676C213.428 16.2676 212.832 16.4336 212.402 16.7656C212.168 16.5312 212.051 16.1895 212.051 15.7402C212.031 15.291 212.08 14.9199 212.197 14.627C212.314 14.3145 212.51 14.041 212.783 13.8066C213.369 13.2793 214.209 13.0156 215.303 13.0156C216.416 13.0156 217.461 13.3672 218.438 14.0703C219.238 13.3672 220.215 13.0156 221.367 13.0156C222.52 13.0156 223.535 13.3379 224.414 13.9824C225.293 13.3379 226.279 13.0156 227.373 13.0156C228.467 13.0156 229.326 13.2793 229.951 13.8066C230.596 14.3145 230.928 14.8223 230.947 15.3301C230.967 16.0918 230.84 16.6094 230.566 16.8828C230.098 16.5312 229.609 16.3555 229.102 16.3555C228.594 16.3555 228.174 16.502 227.842 16.7949C227.529 17.0879 227.393 17.5664 227.432 18.2305L234.199 36.5117L240.615 17.7324C240.4 16.7363 239.688 16.2383 238.477 16.2383C237.715 16.2383 236.992 16.4238 236.309 16.7949C236.113 16.4238 236.016 15.9453 236.016 15.3594C236.035 14.7734 236.309 14.2363 236.836 13.748C237.383 13.2598 238.115 13.0156 239.033 13.0156C239.971 13.0156 240.771 13.3281 241.436 13.9531C242.139 13.3281 242.93 13.0156 243.809 13.0156C244.688 13.0156 245.488 13.2891 246.211 13.8359C246.875 13.2891 247.607 13.0156 248.408 13.0156C249.229 13.0156 249.873 13.25 250.342 13.7188C250.83 14.1875 251.064 14.6758 251.045 15.1836C251.006 15.9648 250.889 16.502 250.693 16.7949ZM222.48 19.7246C222.031 20.0176 221.807 20.3887 221.807 20.8379C221.826 21.2871 221.846 21.6387 221.865 21.8926C221.904 22.127 221.963 22.4102 222.041 22.7422C222.217 23.3672 222.568 24.2949 223.096 25.5254C223.643 26.7363 223.926 27.498 223.945 27.8105C223.984 28.1035 223.887 28.4355 223.652 28.8066C223.418 29.1582 223.135 29.3926 222.803 29.5098C224.053 29.7441 224.824 30.1836 225.117 30.8281C225.254 31.1016 225.449 31.5312 225.703 32.1172L227.695 36.5703C228.086 37.4688 228.496 38.3574 228.926 39.2363C229.727 38.2598 229.375 36.0137 227.871 32.498L222.48 19.7246ZM274.102 45.8574C272.539 47.4199 271.055 48.2012 269.648 48.2012C268.75 48.2012 268.145 47.8691 267.832 47.2051C268.281 46.6582 268.506 45.8379 268.506 44.7441V44.3047C268.506 44.1875 268.496 44.0801 268.477 43.9824C267.5 43.1035 267.012 42.0684 267.012 40.877C267.012 39.666 267.578 38.4355 268.711 37.1855C268.379 36.5215 268.213 35.8184 268.213 35.0762C268.213 34.3145 268.32 33.6113 268.535 32.9668C268.77 32.3027 269.082 31.7266 269.473 31.2383C270.293 30.1641 271.094 29.627 271.875 29.627C272.676 29.627 273.242 29.9395 273.574 30.5645C272.871 31.3066 272.52 32.4688 272.52 34.0508C272.52 35.6328 272.744 37.0098 273.193 38.1816C273.662 39.3535 274.316 40.3594 275.156 41.1992C276.953 43.0352 279.248 43.9531 282.041 43.9531C283.916 43.9531 285.508 43.416 286.816 42.3418C288.223 41.1895 288.926 39.6172 288.926 37.625C288.926 36.2188 288.594 35.0762 287.93 34.1973C286.895 32.8301 285.273 31.3848 283.066 29.8613C281.367 28.6699 280.01 28.0742 278.994 28.0742C277.959 28.0742 276.816 28.4941 275.566 29.334C275.898 28.3379 276.064 27.4102 276.064 26.5508C276.064 26.3555 275.879 26.1016 275.508 25.7891L274.424 24.8223C271.006 21.6777 268.984 18.7578 268.359 16.0625C268.145 15.125 268.037 13.9531 268.037 12.5469C268.037 11.1211 268.379 9.68555 269.062 8.24023C269.766 6.77539 270.723 5.53516 271.934 4.51953C274.453 2.37109 277.656 1.29688 281.543 1.29688C283.906 1.29688 286.074 1.67773 288.047 2.43945C288.887 2.77148 289.844 2.9375 290.918 2.9375C291.367 2.9375 291.768 2.91797 292.119 2.87891C292.49 2.82031 292.812 2.61523 293.086 2.26367C293.34 1.89258 293.467 1.56055 293.467 1.26758C293.467 0.974609 293.428 0.730469 293.35 0.535156C293.486 0.476562 293.672 0.447266 293.906 0.447266C294.16 0.447266 294.434 0.535156 294.727 0.710938C295.02 0.867187 295.283 1.0918 295.518 1.38477C296.045 2.04883 296.309 2.80078 296.309 3.64062C296.309 4.46094 296.074 5.08594 295.605 5.51562C296.27 6.10156 296.602 7.00977 296.602 8.24023C296.602 9.45117 296.191 10.4668 295.371 11.2871C295.527 11.8145 295.605 12.293 295.605 12.7227C295.605 13.1328 295.527 13.5332 295.371 13.9238C295.234 14.2949 295.039 14.6172 294.785 14.8906C294.219 15.4961 293.682 15.7988 293.174 15.7988C292.373 15.7988 291.699 15.6621 291.152 15.3887C291.484 14.6074 291.65 13.7676 291.65 12.8691C291.65 11.9707 291.445 11.0527 291.035 10.1152C290.645 9.1582 290.088 8.32812 289.365 7.625C287.842 6.17969 285.85 5.45703 283.389 5.45703C281.826 5.45703 280.547 5.93555 279.551 6.89258C278.613 7.79102 278.145 8.875 278.145 10.1445C278.145 11.1016 278.379 11.9023 278.848 12.5469C279.668 13.6602 280.967 14.8125 282.744 16.0039L284.15 16.9414C284.932 17.4297 285.459 17.6738 285.732 17.6738C286.006 17.6738 286.279 17.6445 286.553 17.5859C286.826 17.5273 287.129 17.4492 287.461 17.3516C288.164 17.1172 288.848 16.7852 289.512 16.3555L289.131 17.9961C289.014 18.543 288.955 18.9434 288.955 19.1973C288.955 19.6074 289.16 19.9785 289.57 20.3105C293.223 23.4746 295.664 26.1211 296.895 28.25C297.969 30.1055 298.506 32.1074 298.506 34.2559C298.506 36.4043 298.154 38.25 297.451 39.793C296.748 41.3359 295.723 42.7031 294.375 43.8945C291.406 46.5508 287.549 47.8789 282.803 47.8789C279.463 47.8789 276.562 47.2051 274.102 45.8574ZM272.109 10.3789C271.367 10.6914 270.996 11.502 270.996 12.8105C270.996 15.4863 272.783 18.4258 276.357 21.6289L278.115 23.2109C278.721 23.7578 278.984 24.1777 278.906 24.4707C278.848 24.7637 278.789 24.998 278.73 25.1738C278.691 25.3496 278.643 25.5156 278.584 25.6719C278.525 25.8281 278.486 25.9453 278.467 26.0234C279.15 25.6133 279.707 25.4082 280.137 25.4082C280.996 25.4082 281.807 25.6426 282.568 26.1113C286.338 28.4551 288.896 30.5449 290.244 32.3809C291.221 33.7285 291.729 35.4082 291.768 37.4199C291.768 38.1426 291.719 38.748 291.621 39.2363C292.656 38.5723 293.174 37.5176 293.174 36.0723C293.174 34.666 292.979 33.582 292.588 32.8203C292.217 32.0586 291.777 31.3848 291.27 30.7988C290.762 30.1934 290.098 29.5391 289.277 28.8359C288.477 28.1328 287.48 27.3711 286.289 26.5508L282.129 23.709C278.711 21.4629 276.113 19.0898 274.336 16.5898C272.773 14.3828 272.031 12.3125 272.109 10.3789ZM308.965 46.6484C308.066 47.2734 307.041 47.5859 305.889 47.5859C304.756 47.5859 303.906 47.332 303.34 46.8242C302.793 46.3164 302.52 45.8281 302.52 45.3594C302.52 44.7148 302.656 44.207 302.93 43.8359C303.359 44.168 303.906 44.334 304.57 44.334C305.703 44.334 306.514 43.6797 307.002 42.3711V33.3477C307.002 32.3711 306.816 31.707 306.445 31.3555C305.996 30.8867 304.99 30.2715 303.428 29.5098C304.795 28.8848 305.664 28.3867 306.035 28.0156C306.68 27.3711 307.002 26.5801 307.002 25.6426V9.06055C307.002 6.83398 306.094 5.7207 304.277 5.7207C303.613 5.7207 303.066 5.88672 302.637 6.21875C302.363 5.84766 302.227 5.4668 302.227 5.07617C302.227 4.66602 302.324 4.27539 302.52 3.9043C302.734 3.5332 303.047 3.19141 303.457 2.87891C304.395 2.21484 305.566 1.88281 306.973 1.88281C308.379 1.88281 309.473 1.9707 310.254 2.14648C311.328 0.798828 312.539 0.125 313.887 0.125C315.898 0.125 316.904 1.17969 316.904 3.28906V17.7324C318.799 14.1973 321.895 12.4297 326.191 12.4297C331.113 12.4297 334.248 14.6074 335.596 18.9629C336.025 20.3496 336.24 21.9219 336.24 23.6797V25.6426C336.24 26.5605 336.445 27.2246 336.855 27.6348C337.461 28.2402 338.447 28.8555 339.814 29.4805C338.33 30.2031 337.412 30.7598 337.061 31.1504C336.514 31.7559 336.24 32.4883 336.24 33.3477V42.5176C336.611 43.7285 337.422 44.334 338.672 44.334C339.336 44.334 339.883 44.168 340.312 43.8359C340.527 44.1289 340.635 44.5586 340.635 45.125C340.635 45.6914 340.371 46.248 339.844 46.7949C339.336 47.3223 338.516 47.5859 337.383 47.5859C336.25 47.5859 335.205 47.2734 334.248 46.6484C333.369 47.2734 332.373 47.5859 331.26 47.5859C330.166 47.5859 329.209 47.293 328.389 46.707C327.627 47.293 326.768 47.5859 325.811 47.5859C324.873 47.5859 324.121 47.3418 323.555 46.8535C322.988 46.3652 322.705 45.6621 322.705 44.7441C322.705 44.3145 322.852 43.9727 323.145 43.7188C323.594 44.0703 324.043 44.2461 324.492 44.2461C325.352 44.2461 325.967 43.7676 326.338 42.8105V25.3496C326.338 21.541 325.41 19.3438 323.555 18.7578C322.969 18.5625 322.334 18.4648 321.65 18.4648C319.619 18.4648 318.203 19.5391 317.402 21.6875C317.148 22.3516 316.982 23.0742 316.904 23.8555V42.8105C317.275 43.7676 317.891 44.2461 318.75 44.2461C319.199 44.2461 319.648 44.0703 320.098 43.7188C320.391 43.9727 320.537 44.4414 320.537 45.125C320.537 45.7891 320.254 46.3652 319.688 46.8535C319.121 47.3418 318.359 47.5859 317.402 47.5859C316.445 47.5859 315.586 47.293 314.824 46.707C314.023 47.293 313.076 47.5859 311.982 47.5859C310.889 47.5859 309.883 47.2734 308.965 46.6484ZM309.756 39.207C310.635 38.6406 311.152 37.4004 311.309 35.4863C311.367 34.6465 311.406 33.709 311.426 32.6738C311.445 31.6387 311.455 30.9062 311.455 30.4766C311.475 30.0273 311.484 29.6953 311.484 29.4805V26.8438C311.484 26.1211 311.484 25.3008 311.484 24.3828L311.426 21.5117C311.387 16.3359 311.299 13.4551 311.162 12.8691C310.889 11.6387 310.42 10.8086 309.756 10.3789V20.252C309.756 24.2949 309.707 26.5508 309.609 27.0195C309.531 27.4688 309.463 27.8008 309.404 28.0156C309.229 28.6211 308.564 29.1191 307.412 29.5098C308.584 29.9199 309.248 30.4082 309.404 30.9746C309.639 31.9121 309.756 34.0215 309.756 37.3027V39.207ZM329.121 39.2363C330.098 38.8652 330.645 37.5859 330.762 35.3984C330.859 33.2109 330.908 31.209 330.908 29.3926C330.908 27.5566 330.85 26.0625 330.732 24.9102C330.615 23.7578 330.42 22.8496 330.146 22.1855C329.893 21.502 329.561 20.9941 329.15 20.6621C328.74 20.3105 328.242 19.9883 327.656 19.6953C328.398 21.4531 328.828 23.0547 328.945 24.5C329.062 25.9453 329.121 27.3418 329.121 28.6895V39.2363ZM350.684 43.7188C349.453 42.4688 348.477 40.9844 347.754 39.2656C347.051 37.5469 346.621 36.0723 346.465 34.8418C346.309 33.6113 346.172 32.8203 346.055 32.4688C345.957 32.1172 345.781 31.7852 345.527 31.4727C345.02 30.8281 344.092 30.1738 342.744 29.5098C344.443 28.748 345.527 27.5273 345.996 25.8477C346.133 25.3789 346.24 24.9102 346.318 24.4414C346.826 20.9453 348.516 18.0254 351.387 15.6816C354.258 13.3184 357.607 12.1367 361.436 12.1367C365.42 12.1367 368.848 13.3281 371.719 15.7109C374.512 18.0352 376.162 20.9453 376.67 24.4414C376.846 25.6719 377.109 26.5703 377.461 27.1367C378.125 28.1719 379.053 28.9629 380.244 29.5098C378.916 30.1543 378.057 30.7207 377.666 31.209C377.139 31.8926 376.807 32.7031 376.67 33.6406C376.045 38.25 374.443 41.7559 371.865 44.1582C369.287 46.541 365.85 47.7324 361.553 47.7324C356.943 47.7324 353.32 46.3945 350.684 43.7188ZM366.475 23.5918C366.475 18.709 364.814 16.2676 361.494 16.2676C358.174 16.2676 356.514 18.709 356.514 23.5918V36.5703C356.514 41.2578 358.164 43.6016 361.465 43.6016C364.805 43.6016 366.475 41.2578 366.475 36.5703V23.5918ZM369.287 39.2363C370.264 38.8652 370.801 37.5859 370.898 35.3984C371.016 33.2109 371.074 31.5898 371.074 30.5352C371.074 29.4609 371.064 28.5723 371.045 27.8691C371.045 27.1465 371.035 26.4043 371.016 25.6426C370.938 22.791 370.713 21.1309 370.342 20.6621C369.971 20.1934 369.619 19.8809 369.287 19.7246V39.2363ZM351.738 39.2363C352.012 39.0215 352.148 38.7773 352.148 38.5039C352.148 38.0742 352.061 37.5273 351.885 36.8633C351.084 33.7969 350.684 31.668 350.684 30.4766C350.684 29.2656 350.723 28.3281 350.801 27.6641C350.879 26.9805 350.977 26.2969 351.094 25.6133C351.348 24.2852 351.611 23.1133 351.885 22.0977C352.061 21.4336 352.148 20.9844 352.148 20.75C352.148 20.2812 352.012 19.9395 351.738 19.7246C350.918 20.7012 350.293 22.0098 349.863 23.6504C349.434 25.291 349.082 26.7363 348.809 27.9863C348.711 28.5137 348.135 29.0215 347.08 29.5098C348.135 29.998 348.711 30.4863 348.809 30.9746C349.531 34.2754 350.127 36.375 350.596 37.2734C351.064 38.1719 351.445 38.8262 351.738 39.2363ZM390.996 43.7188C389.766 42.4688 388.789 40.9844 388.066 39.2656C387.363 37.5469 386.934 36.0723 386.777 34.8418C386.621 33.6113 386.484 32.8203 386.367 32.4688C386.27 32.1172 386.094 31.7852 385.84 31.4727C385.332 30.8281 384.404 30.1738 383.057 29.5098C384.756 28.748 385.84 27.5273 386.309 25.8477C386.445 25.3789 386.553 24.9102 386.631 24.4414C387.139 20.9453 388.828 18.0254 391.699 15.6816C394.57 13.3184 397.92 12.1367 401.748 12.1367C405.732 12.1367 409.16 13.3281 412.031 15.7109C414.824 18.0352 416.475 20.9453 416.982 24.4414C417.158 25.6719 417.422 26.5703 417.773 27.1367C418.438 28.1719 419.365 28.9629 420.557 29.5098C419.229 30.1543 418.369 30.7207 417.979 31.209C417.451 31.8926 417.119 32.7031 416.982 33.6406C416.357 38.25 414.756 41.7559 412.178 44.1582C409.6 46.541 406.162 47.7324 401.865 47.7324C397.256 47.7324 393.633 46.3945 390.996 43.7188ZM406.787 23.5918C406.787 18.709 405.127 16.2676 401.807 16.2676C398.486 16.2676 396.826 18.709 396.826 23.5918V36.5703C396.826 41.2578 398.477 43.6016 401.777 43.6016C405.117 43.6016 406.787 41.2578 406.787 36.5703V23.5918ZM409.6 39.2363C410.576 38.8652 411.113 37.5859 411.211 35.3984C411.328 33.2109 411.387 31.5898 411.387 30.5352C411.387 29.4609 411.377 28.5723 411.357 27.8691C411.357 27.1465 411.348 26.4043 411.328 25.6426C411.25 22.791 411.025 21.1309 410.654 20.6621C410.283 20.1934 409.932 19.8809 409.6 19.7246V39.2363ZM392.051 39.2363C392.324 39.0215 392.461 38.7773 392.461 38.5039C392.461 38.0742 392.373 37.5273 392.197 36.8633C391.396 33.7969 390.996 31.668 390.996 30.4766C390.996 29.2656 391.035 28.3281 391.113 27.6641C391.191 26.9805 391.289 26.2969 391.406 25.6133C391.66 24.2852 391.924 23.1133 392.197 22.0977C392.373 21.4336 392.461 20.9844 392.461 20.75C392.461 20.2812 392.324 19.9395 392.051 19.7246C391.23 20.7012 390.605 22.0098 390.176 23.6504C389.746 25.291 389.395 26.7363 389.121 27.9863C389.023 28.5137 388.447 29.0215 387.393 29.5098C388.447 29.998 389.023 30.4863 389.121 30.9746C389.844 34.2754 390.439 36.375 390.908 37.2734C391.377 38.1719 391.758 38.8262 392.051 39.2363ZM443.496 42.7227C443.867 42.332 444.16 41.8438 444.375 41.2578C444.59 40.6523 444.697 40.0273 444.697 39.3828C444.697 38.7188 444.658 38.1133 444.58 37.5664C444.717 37.2734 445.088 37.0488 445.693 36.8926C446.299 36.7168 446.699 36.6289 446.895 36.6289C447.637 36.6289 448.232 36.9121 448.682 37.4785C449.131 38.0254 449.355 38.7969 449.355 39.793C449.355 40.7695 449.062 41.7363 448.477 42.6934C447.91 43.6504 447.148 44.5 446.191 45.2422C444.062 46.9023 441.582 47.7324 438.75 47.7324C433.359 47.7324 429.785 45.6914 428.027 41.6094C427.383 40.1055 427.061 38.2207 427.061 35.9551V32.3809C427.061 31.4629 426.055 30.4961 424.043 29.4805C426.055 28.3281 427.061 26.7754 427.061 24.8223V21.3652C427.061 19.1387 426.152 18.0254 424.336 18.0254C423.672 18.0254 423.125 18.1914 422.695 18.5234C422.422 18.1523 422.285 17.7715 422.285 17.3809C422.285 16.9707 422.354 16.5312 422.49 16.0625C422.646 15.5742 422.91 15.1348 423.281 14.7441C424.219 13.7285 425.674 13.377 427.646 13.6895V12.752C427.646 10.7012 428.164 8.89453 429.199 7.33203C430.117 5.92578 430.928 5.22266 431.631 5.22266C432.354 5.22266 432.91 5.4668 433.301 5.95508C433.633 4.41211 434.072 3.29883 434.619 2.61523C435.166 1.93164 435.947 1.58984 436.963 1.58984V13.8066H446.484C446.641 14.1191 446.719 14.6465 446.719 15.3887C446.719 16.1113 446.436 16.6973 445.869 17.1465C445.303 17.5762 444.619 17.791 443.818 17.791H436.963V37.625C436.963 41.0234 437.734 43.0156 439.277 43.6016C439.727 43.7578 440.205 43.8359 440.713 43.8359C441.24 43.8359 441.738 43.748 442.207 43.5723C442.695 43.377 443.125 43.0938 443.496 42.7227ZM429.873 39.2363C430.791 38.6504 431.309 37.4297 431.426 35.5742C431.504 34.2461 431.543 33.2109 431.543 32.4688C431.562 31.7266 431.572 31.1309 431.572 30.6816C431.592 30.2129 431.602 29.8516 431.602 29.5977V28.4258C431.602 27.8594 431.592 27.1367 431.572 26.2578C431.572 25.3594 431.562 24.3926 431.543 23.3574C431.543 22.3027 431.523 21.2969 431.484 20.3398C431.426 18.0352 431.338 16.6289 431.221 16.1211C430.986 14.9883 430.537 14.207 429.873 13.7773V22.918C429.873 25.6328 429.824 27.0684 429.727 27.2246C429.648 27.3809 429.58 27.5664 429.521 27.7812C429.346 28.3672 428.682 28.8555 427.529 29.2461C428.701 29.6562 429.365 30.1543 429.521 30.7402C429.756 31.6777 429.873 33.875 429.873 37.332V39.2363ZM457.559 43.7188C456.328 42.4688 455.352 40.9844 454.629 39.2656C453.926 37.5469 453.496 36.0723 453.34 34.8418C453.184 33.6113 453.047 32.8203 452.93 32.4688C452.832 32.1172 452.656 31.7852 452.402 31.4727C451.895 30.8281 450.967 30.1738 449.619 29.5098C451.318 28.748 452.402 27.5273 452.871 25.8477C453.008 25.3789 453.115 24.9102 453.193 24.4414C453.701 20.9453 455.391 18.0254 458.262 15.6816C461.133 13.3184 464.482 12.1367 468.311 12.1367C472.295 12.1367 475.723 13.3281 478.594 15.7109C481.387 18.0352 483.037 20.9453 483.545 24.4414C483.721 25.6719 483.984 26.5703 484.336 27.1367C485 28.1719 485.928 28.9629 487.119 29.5098C485.791 30.1543 484.932 30.7207 484.541 31.209C484.014 31.8926 483.682 32.7031 483.545 33.6406C482.92 38.25 481.318 41.7559 478.74 44.1582C476.162 46.541 472.725 47.7324 468.428 47.7324C463.818 47.7324 460.195 46.3945 457.559 43.7188ZM473.35 23.5918C473.35 18.709 471.689 16.2676 468.369 16.2676C465.049 16.2676 463.389 18.709 463.389 23.5918V36.5703C463.389 41.2578 465.039 43.6016 468.34 43.6016C471.68 43.6016 473.35 41.2578 473.35 36.5703V23.5918ZM476.162 39.2363C477.139 38.8652 477.676 37.5859 477.773 35.3984C477.891 33.2109 477.949 31.5898 477.949 30.5352C477.949 29.4609 477.939 28.5723 477.92 27.8691C477.92 27.1465 477.91 26.4043 477.891 25.6426C477.812 22.791 477.588 21.1309 477.217 20.6621C476.846 20.1934 476.494 19.8809 476.162 19.7246V39.2363ZM458.613 39.2363C458.887 39.0215 459.023 38.7773 459.023 38.5039C459.023 38.0742 458.936 37.5273 458.76 36.8633C457.959 33.7969 457.559 31.668 457.559 30.4766C457.559 29.2656 457.598 28.3281 457.676 27.6641C457.754 26.9805 457.852 26.2969 457.969 25.6133C458.223 24.2852 458.486 23.1133 458.76 22.0977C458.936 21.4336 459.023 20.9844 459.023 20.75C459.023 20.2812 458.887 19.9395 458.613 19.7246C457.793 20.7012 457.168 22.0098 456.738 23.6504C456.309 25.291 455.957 26.7363 455.684 27.9863C455.586 28.5137 455.01 29.0215 453.955 29.5098C455.01 29.998 455.586 30.4863 455.684 30.9746C456.406 34.2754 457.002 36.375 457.471 37.2734C457.939 38.1719 458.32 38.8262 458.613 39.2363ZM518.672 47.5859C515.918 47.5859 514.434 45.6816 514.219 41.873C513.223 43.6699 511.875 45.0957 510.176 46.1504C508.496 47.2051 506.68 47.7324 504.727 47.7324C502.793 47.7324 501.221 47.4688 500.01 46.9414C498.799 46.4141 497.793 45.6523 496.992 44.6562C495.43 42.7031 494.648 39.9297 494.648 36.3359V34.5195C494.648 32.2539 493.457 30.5742 491.074 29.4805C492.48 28.7969 493.379 28.2207 493.77 27.752C494.355 27.0293 494.648 26.2188 494.648 25.3203V21.3652C494.648 19.7051 494.082 18.8066 492.949 18.6699C492.617 18.6309 492.197 18.6113 491.689 18.6113C491.182 18.6113 490.713 18.7773 490.283 19.1094C490.01 18.7383 489.873 18.3574 489.873 17.9668C489.873 17.5566 489.971 17.1074 490.166 16.6191C490.381 16.1113 490.703 15.6328 491.133 15.1836C492.148 14.1289 493.33 13.6016 494.678 13.6016C496.025 13.6016 497.295 13.8262 498.486 14.2754C499.346 13.0449 500.361 12.4297 501.533 12.4297C503.545 12.4297 504.551 13.4844 504.551 15.5938V34.666C504.551 38.377 505.41 40.6035 507.129 41.3457C507.676 41.5801 508.281 41.6973 508.945 41.6973C509.629 41.6973 510.244 41.5605 510.791 41.2871C511.338 40.9941 511.816 40.6035 512.227 40.1152C512.988 39.1582 513.477 37.8496 513.691 36.1895V21.3652C513.691 19.1387 512.783 18.0254 510.967 18.0254C510.303 18.0254 509.756 18.1914 509.326 18.5234C509.053 18.1523 508.916 17.7715 508.916 17.3809C508.916 16.9707 509.014 16.5508 509.209 16.1211C509.424 15.6719 509.746 15.2617 510.176 14.8906C511.133 14.0313 512.295 13.6016 513.662 13.6016C515.049 13.6016 516.338 13.8262 517.529 14.2754C518.389 13.0449 519.404 12.4297 520.576 12.4297C522.588 12.4297 523.594 13.4844 523.594 15.5938V25.3203C523.594 26.2188 523.77 26.8828 524.121 27.3125C524.746 28.0742 525.762 28.7969 527.168 29.4805C524.785 30.5742 523.594 32.2539 523.594 34.5195V42.0781C523.965 43.582 524.775 44.334 526.025 44.334C526.689 44.334 527.236 44.168 527.666 43.8359C527.939 44.207 528.076 44.6758 528.076 45.2422C528.076 45.7891 527.793 46.3164 527.227 46.8242C526.68 47.332 525.811 47.5859 524.619 47.5859C523.447 47.5859 522.334 47.2734 521.279 46.6484C520.498 47.2734 519.629 47.5859 518.672 47.5859ZM516.475 39.2363C517.607 38.7871 518.203 36.6289 518.262 32.7617C518.262 31.9414 518.262 31.0039 518.262 29.9492C518.262 28.8945 518.252 27.9961 518.232 27.2539C518.232 26.4922 518.223 25.7695 518.203 25.0859C518.125 22.625 517.9 21.1602 517.529 20.6914C517.158 20.2031 516.807 19.8809 516.475 19.7246V39.2363ZM498.955 29.4805L499.043 25.6133C499.043 23.875 498.984 22.7227 498.867 22.1562C498.535 20.6719 498.066 19.8613 497.461 19.7246V21.6289C497.461 24.9297 497.383 26.873 497.227 27.459C497.09 28.0254 496.855 28.4551 496.523 28.748C496.211 29.0215 495.742 29.2656 495.117 29.4805C496.289 29.8906 496.953 30.3887 497.109 30.9746C497.344 31.9121 497.461 34.0312 497.461 37.332V39.2363C498.047 39.0996 498.525 38.2305 498.896 36.6289C498.994 36.1797 499.043 35.0859 499.043 33.3477L498.955 29.4805ZM550.781 42.7227C551.152 42.332 551.445 41.8438 551.66 41.2578C551.875 40.6523 551.982 40.0273 551.982 39.3828C551.982 38.7188 551.943 38.1133 551.865 37.5664C552.002 37.2734 552.373 37.0488 552.979 36.8926C553.584 36.7168 553.984 36.6289 554.18 36.6289C554.922 36.6289 555.518 36.9121 555.967 37.4785C556.416 38.0254 556.641 38.7969 556.641 39.793C556.641 40.7695 556.348 41.7363 555.762 42.6934C555.195 43.6504 554.434 44.5 553.477 45.2422C551.348 46.9023 548.867 47.7324 546.035 47.7324C540.645 47.7324 537.07 45.6914 535.312 41.6094C534.668 40.1055 534.346 38.2207 534.346 35.9551V32.3809C534.346 31.4629 533.34 30.4961 531.328 29.4805C533.34 28.3281 534.346 26.7754 534.346 24.8223V21.3652C534.346 19.1387 533.438 18.0254 531.621 18.0254C530.957 18.0254 530.41 18.1914 529.98 18.5234C529.707 18.1523 529.57 17.7715 529.57 17.3809C529.57 16.9707 529.639 16.5312 529.775 16.0625C529.932 15.5742 530.195 15.1348 530.566 14.7441C531.504 13.7285 532.959 13.377 534.932 13.6895V12.752C534.932 10.7012 535.449 8.89453 536.484 7.33203C537.402 5.92578 538.213 5.22266 538.916 5.22266C539.639 5.22266 540.195 5.4668 540.586 5.95508C540.918 4.41211 541.357 3.29883 541.904 2.61523C542.451 1.93164 543.232 1.58984 544.248 1.58984V13.8066H553.77C553.926 14.1191 554.004 14.6465 554.004 15.3887C554.004 16.1113 553.721 16.6973 553.154 17.1465C552.588 17.5762 551.904 17.791 551.104 17.791H544.248V37.625C544.248 41.0234 545.02 43.0156 546.562 43.6016C547.012 43.7578 547.49 43.8359 547.998 43.8359C548.525 43.8359 549.023 43.748 549.492 43.5723C549.98 43.377 550.41 43.0938 550.781 42.7227ZM537.158 39.2363C538.076 38.6504 538.594 37.4297 538.711 35.5742C538.789 34.2461 538.828 33.2109 538.828 32.4688C538.848 31.7266 538.857 31.1309 538.857 30.6816C538.877 30.2129 538.887 29.8516 538.887 29.5977V28.4258C538.887 27.8594 538.877 27.1367 538.857 26.2578C538.857 25.3594 538.848 24.3926 538.828 23.3574C538.828 22.3027 538.809 21.2969 538.77 20.3398C538.711 18.0352 538.623 16.6289 538.506 16.1211C538.271 14.9883 537.822 14.207 537.158 13.7773V22.918C537.158 25.6328 537.109 27.0684 537.012 27.2246C536.934 27.3809 536.865 27.5664 536.807 27.7812C536.631 28.3672 535.967 28.8555 534.814 29.2461C535.986 29.6562 536.65 30.1543 536.807 30.7402C537.041 31.6777 537.158 33.875 537.158 37.332V39.2363Z" fill="black"/>
</svg>
