<svg width="1920" height="270" viewBox="0 0 1920 270" fill="none" xmlns="http://www.w3.org/2000/svg">
<path d="M108.85 0.65605C65.8801 -4.37509 0 21.1823 0 21.1823V270H1920V21.1823H1859.53C1813.48 21.1823 1787.58 18.5096 1741.61 21.1823C1690.53 24.1516 1661.48 25.9463 1611.59 37.2027C1577.94 44.7945 1567.1 49.9245 1541 62.2783L1540.03 62.7353C1509.22 77.3156 1506.27 91.7724 1465.95 108.794C1307.51 175.691 1259.84 168.37 1088.5 168.37C994.805 168.37 937.675 165.359 852.157 127.318C837.297 120.707 830.487 113.356 814.866 108.794C775.349 97.2526 751.188 118.109 711.055 127.318C669.782 136.788 648.481 149.687 606.74 156.856C499.085 175.344 427.853 172.609 328.567 127.318C285.701 107.764 226.772 62.7353 226.772 62.7353C226.772 62.7353 160.61 6.71622 108.85 0.65605Z" fill="#8B2C26"/>
</svg>
