<svg width="1920" height="438" viewBox="0 0 1920 438" fill="none" xmlns="http://www.w3.org/2000/svg">
<path d="M103.485 54.1135C63.8451 62.3364 0 60.6116 0 60.6116V438H1920V6.12767C1920 6.12767 1771.04 35.7073 1674.35 37.1185C1565 38.7144 1504.41 -8.55514 1396.04 6.12767C1281.37 21.6658 1237.18 102.761 1122.76 120.094C1051.97 130.818 1010.99 121.871 939.403 120.094C853.569 117.963 804.372 123.245 719.874 108.098C629.013 91.8091 583.838 60.4646 494.819 36.1188C439.489 20.9865 409.411 4.91064 352.151 1.12914C293.438 -2.74828 259.414 3.4677 202.449 18.1241C162.609 28.3746 143.77 45.7567 103.485 54.1135Z" fill="#F06220"/>
</svg>
