<svg width="1920" height="938" viewBox="0 0 1920 938" fill="none" xmlns="http://www.w3.org/2000/svg">
<path d="M1817.18 423.128C1851.64 446.195 1888.74 443.181 1920 449.699V938H0V589.571C0 589.571 33.9321 589.649 55.674 589.571C230.681 588.944 328.92 586.163 503.574 575.033C637.599 566.491 715.569 576.337 846.144 544.952C898.497 532.369 925.812 517.874 978.056 504.846C1026.51 492.763 1064.16 487.466 1103.45 479.779C1142.74 472.092 1190.25 472.967 1212.29 432.152C1220.57 416.813 1223.82 389.037 1223.82 389.037C1223.82 389.037 1289.53 405.581 1297.55 402.573C1305.58 399.565 1301.57 363.469 1301.57 363.469L1297.55 306.818L1306.08 196.524L1334.67 182.486V306.818C1334.67 306.818 1340.34 352.439 1346.21 367.479C1352.07 382.52 1376.3 382.52 1383.82 375C1391.35 367.479 1376.22 296.85 1376.8 246.657C1377.62 175.788 1395.86 66.1764 1395.86 66.1764L1413.42 16.5441C1413.42 16.5441 1433.75 21.5758 1445.02 16.5441C1453.75 12.6436 1463.07 0 1463.07 0L1633.1 50.635L1640.63 196.524C1645.81 208.556 1656.18 233.723 1656.18 238.135V348.93C1656.18 384.024 1669.91 371.919 1681.25 367.479C1690.23 363.968 1692.29 345.421 1692.29 345.421V182.486L1714.36 196.524C1714.36 196.524 1715.36 354.612 1720.38 351.938C1725.39 349.264 1735.42 342.413 1735.42 342.413V286.764L1755.49 284.759L1758.5 351.938C1775.05 373.328 1787.23 403.083 1817.18 423.128Z" fill="#FF8235"/>
</svg>
