<svg width="1920" height="436" viewBox="0 0 1920 436" fill="none" xmlns="http://www.w3.org/2000/svg">
<path d="M1759.62 1.27539C1822.2 -4.22918 1871.42 9.61303 1920 13.7819V436H0V224.891C0 224.891 118.253 230.603 193.664 224.891C311.786 215.944 372.784 168.924 491.221 166.361C557.173 164.933 594.683 190.109 659.669 178.867C692.75 173.144 708.407 156.566 741.875 153.854C813.843 148.022 840.688 216.028 912.34 224.891C985.953 233.997 1026.42 205.13 1099.95 195.376C1222.88 179.069 1300.87 211.679 1416.17 166.361C1500.73 133.125 1564.95 55.3033 1610.34 38.7948C1655.73 22.2863 1699.72 6.5448 1759.62 1.27539Z" fill="#D24517"/>
</svg>
