<svg width="1920" height="883" viewBox="0 0 1920 883" fill="none" xmlns="http://www.w3.org/2000/svg">
<path d="M74.714 372.211L0 403.228V883H1920V429.243C1920 429.243 1642.77 462.74 1464.19 468.265C1259.56 474.597 1144.93 453.122 940.193 451.756C885.168 451.389 853.665 460.177 799.29 451.756C718.296 439.213 621.781 395.224 604.732 373.211C587.683 351.199 611.752 336.19 579.159 325.684C546.566 315.178 551.217 351.677 534.531 343.194C526.374 339.047 524.503 341.693 518.987 325.684C513.471 309.675 513.471 207.117 513.471 207.117L496.422 147.584V72.5411L478.37 87.5496V174.599L454.803 163.593L451.794 18.5105L405.662 0L394.63 18.5105H373.57L365.046 8.00453L275.79 50.0283V170.096L263.756 186.105V280.659L242.695 267.652L234.171 195.611L226.649 147.584L213.11 156.589L216.119 217.123C216.119 217.123 207.093 357.703 200.073 361.205C193.053 364.707 167.731 381.079 144.414 384.218C117.04 387.903 103.892 360.098 74.714 372.211Z" fill="#FF924F"/>
</svg>
