<svg width="220" height="220" viewBox="0 0 220 220" fill="none" xmlns="http://www.w3.org/2000/svg">
<path d="M104.542 11.9498C106.678 7.27331 113.322 7.27331 115.458 11.9498L136.275 57.5298C137.337 59.8559 139.757 61.253 142.303 61.01L192.185 56.2484C197.303 55.7598 200.625 61.5135 197.643 65.7014L168.578 106.52C167.095 108.603 167.095 111.397 168.578 113.48L197.643 154.299C200.625 158.487 197.303 164.24 192.185 163.752L142.303 158.99C139.757 158.747 137.337 160.144 136.275 162.47L115.458 208.05C113.322 212.727 106.678 212.727 104.542 208.05L83.7249 162.47C82.6625 160.144 80.2426 158.747 77.697 158.99L27.8149 163.752C22.697 164.24 19.3751 158.487 22.3572 154.299L51.4219 113.48C52.9052 111.397 52.9052 108.603 51.4219 106.52L22.3572 65.7014C19.3751 61.5135 22.697 55.7598 27.8149 56.2484L77.697 61.01C80.2426 61.253 82.6625 59.8559 83.7249 57.5298L104.542 11.9498Z" fill="#C5B60C"/>
<path d="M101 131.781C99.3333 133.448 97.75 134.281 96.25 134.281C95.2917 134.281 94.6458 133.927 94.3125 133.219C94.7917 132.635 95.0312 131.76 95.0312 130.594V130.125C95.0312 130 95.0208 129.885 95 129.781C93.9583 128.844 93.4375 127.74 93.4375 126.469C93.4375 125.177 94.0417 123.865 95.25 122.531C94.8958 121.823 94.7188 121.073 94.7188 120.281C94.7188 119.469 94.8333 118.719 95.0625 118.031C95.3125 117.323 95.6458 116.708 96.0625 116.188C96.9375 115.042 97.7917 114.469 98.625 114.469C99.4792 114.469 100.083 114.802 100.438 115.469C99.6875 116.26 99.3125 117.5 99.3125 119.188C99.3125 120.875 99.5521 122.344 100.031 123.594C100.531 124.844 101.229 125.917 102.125 126.812C104.042 128.771 106.49 129.75 109.469 129.75C111.469 129.75 113.167 129.177 114.562 128.031C116.062 126.802 116.812 125.125 116.812 123C116.812 121.5 116.458 120.281 115.75 119.344C114.646 117.885 112.917 116.344 110.562 114.719C108.75 113.448 107.302 112.812 106.219 112.812C105.115 112.812 103.896 113.26 102.562 114.156C102.917 113.094 103.094 112.104 103.094 111.188C103.094 110.979 102.896 110.708 102.5 110.375L101.344 109.344C97.6979 105.99 95.5417 102.875 94.875 100C94.6458 99 94.5312 97.75 94.5312 96.25C94.5312 94.7292 94.8958 93.1979 95.625 91.6562C96.375 90.0938 97.3958 88.7708 98.6875 87.6875C101.375 85.3958 104.792 84.25 108.938 84.25C111.458 84.25 113.771 84.6562 115.875 85.4688C116.771 85.8229 117.792 86 118.938 86C119.417 86 119.844 85.9792 120.219 85.9375C120.615 85.875 120.958 85.6562 121.25 85.2812C121.521 84.8854 121.656 84.5312 121.656 84.2188C121.656 83.9062 121.615 83.6458 121.531 83.4375C121.677 83.375 121.875 83.3438 122.125 83.3438C122.396 83.3438 122.688 83.4375 123 83.625C123.312 83.7917 123.594 84.0312 123.844 84.3438C124.406 85.0521 124.688 85.8542 124.688 86.75C124.688 87.625 124.438 88.2917 123.938 88.75C124.646 89.375 125 90.3438 125 91.6562C125 92.9479 124.562 94.0312 123.688 94.9062C123.854 95.4688 123.938 95.9792 123.938 96.4375C123.938 96.875 123.854 97.3021 123.688 97.7188C123.542 98.1146 123.333 98.4583 123.062 98.75C122.458 99.3958 121.885 99.7188 121.344 99.7188C120.49 99.7188 119.771 99.5729 119.188 99.2812C119.542 98.4479 119.719 97.5521 119.719 96.5938C119.719 95.6354 119.5 94.6562 119.062 93.6562C118.646 92.6354 118.052 91.75 117.281 91C115.656 89.4583 113.531 88.6875 110.906 88.6875C109.24 88.6875 107.875 89.1979 106.812 90.2188C105.812 91.1771 105.312 92.3333 105.312 93.6875C105.312 94.7083 105.562 95.5625 106.062 96.25C106.938 97.4375 108.323 98.6667 110.219 99.9375L111.719 100.938C112.552 101.458 113.115 101.719 113.406 101.719C113.698 101.719 113.99 101.688 114.281 101.625C114.573 101.562 114.896 101.479 115.25 101.375C116 101.125 116.729 100.771 117.438 100.312L117.031 102.062C116.906 102.646 116.844 103.073 116.844 103.344C116.844 103.781 117.062 104.177 117.5 104.531C121.396 107.906 124 110.729 125.312 113C126.458 114.979 127.031 117.115 127.031 119.406C127.031 121.698 126.656 123.667 125.906 125.312C125.156 126.958 124.062 128.417 122.625 129.688C119.458 132.521 115.344 133.938 110.281 133.938C106.719 133.938 103.625 133.219 101 131.781ZM98.875 93.9375C98.0833 94.2708 97.6875 95.1354 97.6875 96.5312C97.6875 99.3854 99.5938 102.521 103.406 105.938L105.281 107.625C105.927 108.208 106.208 108.656 106.125 108.969C106.062 109.281 106 109.531 105.938 109.719C105.896 109.906 105.844 110.083 105.781 110.25C105.719 110.417 105.677 110.542 105.656 110.625C106.385 110.188 106.979 109.969 107.438 109.969C108.354 109.969 109.219 110.219 110.031 110.719C114.052 113.219 116.781 115.448 118.219 117.406C119.26 118.844 119.802 120.635 119.844 122.781C119.844 123.552 119.792 124.198 119.688 124.719C120.792 124.01 121.344 122.885 121.344 121.344C121.344 119.844 121.135 118.688 120.719 117.875C120.323 117.062 119.854 116.344 119.312 115.719C118.771 115.073 118.062 114.375 117.188 113.625C116.333 112.875 115.271 112.062 114 111.188L109.562 108.156C105.917 105.76 103.146 103.229 101.25 100.562C99.5833 98.2083 98.7917 96 98.875 93.9375Z" fill="#323232"/>
</svg>
